<mxfile host="app.diagrams.net" modified="2023-03-24T07:37:15.826Z" agent="5.0 (Windows NT 10.0; Win64; x64) AppleWebKit/537.36 (KHTML, like Gecko) Chrome/108.0.0.0 Safari/537.36" etag="U9qXxeyiX_70cJZYUegY" version="21.0.6" type="github">
  <diagram name="Page-1" id="Ck3fTt-HM888tLe21iKQ">
    <mxGraphModel dx="1401" dy="841" grid="1" gridSize="10" guides="1" tooltips="1" connect="1" arrows="1" fold="1" page="1" pageScale="1" pageWidth="850" pageHeight="1100" math="0" shadow="0">
      <root>
        <mxCell id="0" />
        <mxCell id="1" parent="0" />
        <mxCell id="z8rB2s8k8t27SP1FywNN-5" value="&lt;font style=&quot;font-size: 14px;&quot;&gt;Покупатель&lt;/font&gt;" style="text;strokeColor=none;fillColor=none;html=1;fontSize=24;fontStyle=1;verticalAlign=middle;align=center;" vertex="1" parent="1">
          <mxGeometry x="97" y="196" width="93" height="26" as="geometry" />
        </mxCell>
        <mxCell id="z8rB2s8k8t27SP1FywNN-1" value="&lt;b&gt;Продать видеоматериал&lt;/b&gt;" style="rounded=0;whiteSpace=wrap;html=1;" vertex="1" parent="1">
          <mxGeometry x="205" y="195" width="120" height="60" as="geometry" />
        </mxCell>
        <mxCell id="z8rB2s8k8t27SP1FywNN-2" value="" style="endArrow=classic;html=1;rounded=0;entryX=0;entryY=0.5;entryDx=0;entryDy=0;" edge="1" parent="1">
          <mxGeometry width="50" height="50" relative="1" as="geometry">
            <mxPoint x="90" y="225" as="sourcePoint" />
            <mxPoint x="204" y="225" as="targetPoint" />
            <Array as="points">
              <mxPoint x="179" y="225" />
            </Array>
          </mxGeometry>
        </mxCell>
        <mxCell id="z8rB2s8k8t27SP1FywNN-3" value="" style="endArrow=classic;html=1;rounded=0;exitX=1;exitY=0.5;exitDx=0;exitDy=0;" edge="1" parent="1" source="z8rB2s8k8t27SP1FywNN-1">
          <mxGeometry width="50" height="50" relative="1" as="geometry">
            <mxPoint x="410" y="225" as="sourcePoint" />
            <mxPoint x="490" y="225" as="targetPoint" />
          </mxGeometry>
        </mxCell>
        <mxCell id="z8rB2s8k8t27SP1FywNN-4" value="&lt;font style=&quot;font-size: 9px;&quot;&gt;0&lt;/font&gt;" style="text;strokeColor=none;fillColor=none;html=1;fontSize=24;fontStyle=1;verticalAlign=middle;align=center;" vertex="1" parent="1">
          <mxGeometry x="307" y="234" width="20" height="20" as="geometry" />
        </mxCell>
        <mxCell id="z8rB2s8k8t27SP1FywNN-7" value="&lt;p style=&quot;line-height: 50%;&quot;&gt;&lt;font style=&quot;font-size: 14px;&quot;&gt;Покупатель&lt;br&gt;с видеоматериалом&lt;br&gt;&lt;/font&gt;&lt;/p&gt;" style="text;strokeColor=none;fillColor=none;html=1;fontSize=24;fontStyle=1;verticalAlign=middle;align=center;" vertex="1" parent="1">
          <mxGeometry x="341" y="175" width="138" height="47" as="geometry" />
        </mxCell>
        <mxCell id="z8rB2s8k8t27SP1FywNN-8" value="" style="endArrow=classic;html=1;rounded=0;entryX=0.5;entryY=1;entryDx=0;entryDy=0;" edge="1" parent="1">
          <mxGeometry width="50" height="50" relative="1" as="geometry">
            <mxPoint x="306" y="294" as="sourcePoint" />
            <mxPoint x="306" y="254" as="targetPoint" />
          </mxGeometry>
        </mxCell>
        <mxCell id="z8rB2s8k8t27SP1FywNN-9" value="&lt;font style=&quot;font-size: 14px;&quot;&gt;Продавец&lt;br&gt;&lt;/font&gt;" style="text;strokeColor=none;fillColor=none;html=1;fontSize=24;fontStyle=1;verticalAlign=middle;align=center;" vertex="1" parent="1">
          <mxGeometry x="261" y="298" width="93" height="26" as="geometry" />
        </mxCell>
        <mxCell id="z8rB2s8k8t27SP1FywNN-10" value="" style="endArrow=classic;html=1;rounded=0;entryX=0.192;entryY=0.033;entryDx=0;entryDy=0;entryPerimeter=0;" edge="1" parent="1" target="z8rB2s8k8t27SP1FywNN-1">
          <mxGeometry width="50" height="50" relative="1" as="geometry">
            <mxPoint x="228" y="145" as="sourcePoint" />
            <mxPoint x="290" y="255" as="targetPoint" />
          </mxGeometry>
        </mxCell>
        <mxCell id="z8rB2s8k8t27SP1FywNN-11" value="&lt;font style=&quot;font-size: 14px;&quot;&gt;Каталог&lt;br&gt;&lt;/font&gt;" style="text;strokeColor=none;fillColor=none;html=1;fontSize=24;fontStyle=1;verticalAlign=middle;align=center;" vertex="1" parent="1">
          <mxGeometry x="180" y="110" width="93" height="26" as="geometry" />
        </mxCell>
        <mxCell id="z8rB2s8k8t27SP1FywNN-13" value="&lt;font style=&quot;font-size: 14px;&quot;&gt;Покупатель&lt;/font&gt;" style="text;strokeColor=none;fillColor=none;html=1;fontSize=24;fontStyle=1;verticalAlign=middle;align=center;" vertex="1" parent="1">
          <mxGeometry x="63" y="520" width="93" height="26" as="geometry" />
        </mxCell>
        <mxCell id="z8rB2s8k8t27SP1FywNN-20" value="" style="endArrow=classic;html=1;rounded=0;exitX=1;exitY=0.5;exitDx=0;exitDy=0;" edge="1" parent="1" source="z8rB2s8k8t27SP1FywNN-16">
          <mxGeometry width="50" height="50" relative="1" as="geometry">
            <mxPoint x="632" y="733" as="sourcePoint" />
            <mxPoint x="797" y="730" as="targetPoint" />
          </mxGeometry>
        </mxCell>
        <mxCell id="z8rB2s8k8t27SP1FywNN-21" value="&lt;p style=&quot;line-height: 50%;&quot;&gt;&lt;font style=&quot;font-size: 14px;&quot;&gt;Покупатель&lt;br&gt;с видеоматериалом&lt;br&gt;&lt;/font&gt;&lt;/p&gt;" style="text;strokeColor=none;fillColor=none;html=1;fontSize=24;fontStyle=1;verticalAlign=middle;align=center;" vertex="1" parent="1">
          <mxGeometry x="648" y="683" width="138" height="47" as="geometry" />
        </mxCell>
        <mxCell id="z8rB2s8k8t27SP1FywNN-22" value="" style="endArrow=classic;html=1;rounded=0;entryX=0.5;entryY=1;entryDx=0;entryDy=0;edgeStyle=orthogonalEdgeStyle;" edge="1" parent="1">
          <mxGeometry width="50" height="50" relative="1" as="geometry">
            <mxPoint x="432" y="820" as="sourcePoint" />
            <mxPoint x="431.5" y="670" as="targetPoint" />
            <Array as="points">
              <mxPoint x="432" y="745" />
            </Array>
          </mxGeometry>
        </mxCell>
        <mxCell id="z8rB2s8k8t27SP1FywNN-23" value="&lt;font style=&quot;font-size: 14px;&quot;&gt;Продавец&lt;br&gt;&lt;/font&gt;" style="text;strokeColor=none;fillColor=none;html=1;fontSize=24;fontStyle=1;verticalAlign=middle;align=center;" vertex="1" parent="1">
          <mxGeometry x="383" y="822" width="93" height="26" as="geometry" />
        </mxCell>
        <mxCell id="z8rB2s8k8t27SP1FywNN-24" value="" style="endArrow=classic;html=1;rounded=0;entryX=0.5;entryY=1;entryDx=0;entryDy=0;edgeStyle=orthogonalEdgeStyle;" edge="1" parent="1">
          <mxGeometry width="50" height="50" relative="1" as="geometry">
            <mxPoint x="432" y="800" as="sourcePoint" />
            <mxPoint x="572" y="760" as="targetPoint" />
            <Array as="points">
              <mxPoint x="572" y="800" />
            </Array>
          </mxGeometry>
        </mxCell>
        <mxCell id="z8rB2s8k8t27SP1FywNN-25" value="" style="endArrow=classic;html=1;rounded=0;entryX=0.5;entryY=0;entryDx=0;entryDy=0;" edge="1" parent="1" target="z8rB2s8k8t27SP1FywNN-12">
          <mxGeometry width="50" height="50" relative="1" as="geometry">
            <mxPoint x="230" y="450" as="sourcePoint" />
            <mxPoint x="231.5" y="447" as="targetPoint" />
          </mxGeometry>
        </mxCell>
        <mxCell id="z8rB2s8k8t27SP1FywNN-26" value="&lt;font style=&quot;font-size: 14px;&quot;&gt;Каталог&lt;br&gt;&lt;/font&gt;" style="text;strokeColor=none;fillColor=none;html=1;fontSize=24;fontStyle=1;verticalAlign=middle;align=center;" vertex="1" parent="1">
          <mxGeometry x="183" y="417" width="93" height="26" as="geometry" />
        </mxCell>
        <mxCell id="z8rB2s8k8t27SP1FywNN-27" value="" style="endArrow=classic;html=1;rounded=0;entryX=0.5;entryY=0;entryDx=0;entryDy=0;edgeStyle=orthogonalEdgeStyle;elbow=vertical;" edge="1" parent="1" target="z8rB2s8k8t27SP1FywNN-15">
          <mxGeometry width="50" height="50" relative="1" as="geometry">
            <mxPoint x="230" y="480" as="sourcePoint" />
            <mxPoint x="240" y="530" as="targetPoint" />
          </mxGeometry>
        </mxCell>
        <mxCell id="z8rB2s8k8t27SP1FywNN-28" value="" style="endArrow=classic;html=1;rounded=0;entryX=0;entryY=0.5;entryDx=0;entryDy=0;exitX=1;exitY=0.5;exitDx=0;exitDy=0;edgeStyle=orthogonalEdgeStyle;" edge="1" parent="1" source="z8rB2s8k8t27SP1FywNN-12" target="z8rB2s8k8t27SP1FywNN-15">
          <mxGeometry width="50" height="50" relative="1" as="geometry">
            <mxPoint x="140" y="780" as="sourcePoint" />
            <mxPoint x="190" y="730" as="targetPoint" />
          </mxGeometry>
        </mxCell>
        <mxCell id="z8rB2s8k8t27SP1FywNN-29" value="" style="endArrow=classic;html=1;rounded=0;entryX=0;entryY=0.5;entryDx=0;entryDy=0;exitX=1;exitY=0.5;exitDx=0;exitDy=0;edgeStyle=orthogonalEdgeStyle;" edge="1" parent="1" source="z8rB2s8k8t27SP1FywNN-15" target="z8rB2s8k8t27SP1FywNN-16">
          <mxGeometry width="50" height="50" relative="1" as="geometry">
            <mxPoint x="459" y="659" as="sourcePoint" />
            <mxPoint x="510" y="739" as="targetPoint" />
          </mxGeometry>
        </mxCell>
        <mxCell id="z8rB2s8k8t27SP1FywNN-30" value="" style="endArrow=block;html=1;rounded=0;entryX=0.5;entryY=1;entryDx=0;entryDy=0;endFill=1;startArrow=block;startFill=1;" edge="1" parent="1">
          <mxGeometry width="50" height="50" relative="1" as="geometry">
            <mxPoint x="225" y="294" as="sourcePoint" />
            <mxPoint x="225" y="254" as="targetPoint" />
          </mxGeometry>
        </mxCell>
        <mxCell id="z8rB2s8k8t27SP1FywNN-31" value="&lt;p style=&quot;line-height: 50%;&quot;&gt;&lt;font style=&quot;font-size: 14px;&quot;&gt;БД&lt;br&gt;покупателей&lt;br&gt;&lt;/font&gt;&lt;/p&gt;" style="text;strokeColor=none;fillColor=none;html=1;fontSize=24;fontStyle=1;verticalAlign=middle;align=center;" vertex="1" parent="1">
          <mxGeometry x="180" y="298" width="93" height="26" as="geometry" />
        </mxCell>
        <mxCell id="z8rB2s8k8t27SP1FywNN-32" value="&lt;p style=&quot;line-height: 50%;&quot;&gt;&lt;font style=&quot;font-size: 14px;&quot;&gt;БД&lt;br&gt;покупателей&lt;br&gt;&lt;/font&gt;&lt;/p&gt;" style="text;strokeColor=none;fillColor=none;html=1;fontSize=24;fontStyle=1;verticalAlign=middle;align=center;" vertex="1" parent="1">
          <mxGeometry x="270.5" y="820" width="93" height="26" as="geometry" />
        </mxCell>
        <mxCell id="z8rB2s8k8t27SP1FywNN-33" value="" style="endArrow=classic;html=1;rounded=0;entryX=0.313;entryY=1.033;entryDx=0;entryDy=0;edgeStyle=orthogonalEdgeStyle;entryPerimeter=0;" edge="1" parent="1" target="z8rB2s8k8t27SP1FywNN-15">
          <mxGeometry width="50" height="50" relative="1" as="geometry">
            <mxPoint x="317" y="810" as="sourcePoint" />
            <mxPoint x="316.5" y="660" as="targetPoint" />
            <Array as="points">
              <mxPoint x="317" y="735" />
              <mxPoint x="378" y="735" />
            </Array>
          </mxGeometry>
        </mxCell>
        <mxCell id="z8rB2s8k8t27SP1FywNN-34" value="" style="group" vertex="1" connectable="0" parent="1">
          <mxGeometry x="340.5" y="610" width="120.5" height="60" as="geometry" />
        </mxCell>
        <mxCell id="z8rB2s8k8t27SP1FywNN-15" value="Оформление&lt;br&gt;заказа" style="rounded=0;whiteSpace=wrap;html=1;" vertex="1" parent="z8rB2s8k8t27SP1FywNN-34">
          <mxGeometry width="120" height="60" as="geometry" />
        </mxCell>
        <mxCell id="z8rB2s8k8t27SP1FywNN-18" value="&lt;font style=&quot;font-size: 9px;&quot;&gt;2&lt;/font&gt;" style="text;strokeColor=none;fillColor=none;html=1;fontSize=24;fontStyle=1;verticalAlign=middle;align=center;" vertex="1" parent="z8rB2s8k8t27SP1FywNN-34">
          <mxGeometry x="100.5" y="38" width="20" height="20" as="geometry" />
        </mxCell>
        <mxCell id="z8rB2s8k8t27SP1FywNN-35" value="" style="group" vertex="1" connectable="0" parent="1">
          <mxGeometry x="170" y="520" width="123" height="60" as="geometry" />
        </mxCell>
        <mxCell id="z8rB2s8k8t27SP1FywNN-12" value="Выбор&lt;br&gt;видеоматериала" style="rounded=0;whiteSpace=wrap;html=1;" vertex="1" parent="z8rB2s8k8t27SP1FywNN-35">
          <mxGeometry width="120" height="60" as="geometry" />
        </mxCell>
        <mxCell id="z8rB2s8k8t27SP1FywNN-17" value="&lt;font style=&quot;font-size: 9px;&quot;&gt;1&lt;/font&gt;" style="text;strokeColor=none;fillColor=none;html=1;fontSize=24;fontStyle=1;verticalAlign=middle;align=center;" vertex="1" parent="z8rB2s8k8t27SP1FywNN-35">
          <mxGeometry x="103" y="40" width="20" height="20" as="geometry" />
        </mxCell>
        <mxCell id="z8rB2s8k8t27SP1FywNN-37" value="" style="group" vertex="1" connectable="0" parent="1">
          <mxGeometry x="510" y="700" width="122" height="60" as="geometry" />
        </mxCell>
        <mxCell id="z8rB2s8k8t27SP1FywNN-16" value="Продажа&lt;br&gt;видеоматериала" style="rounded=0;whiteSpace=wrap;html=1;" vertex="1" parent="z8rB2s8k8t27SP1FywNN-37">
          <mxGeometry width="120" height="60" as="geometry" />
        </mxCell>
        <mxCell id="z8rB2s8k8t27SP1FywNN-19" value="&lt;font style=&quot;font-size: 9px;&quot;&gt;3&lt;/font&gt;" style="text;strokeColor=none;fillColor=none;html=1;fontSize=24;fontStyle=1;verticalAlign=middle;align=center;" vertex="1" parent="z8rB2s8k8t27SP1FywNN-37">
          <mxGeometry x="102" y="39" width="20" height="20" as="geometry" />
        </mxCell>
        <mxCell id="z8rB2s8k8t27SP1FywNN-38" value="" style="endArrow=classic;html=1;rounded=0;entryX=0;entryY=0.5;entryDx=0;entryDy=0;" edge="1" parent="1" target="z8rB2s8k8t27SP1FywNN-12">
          <mxGeometry width="50" height="50" relative="1" as="geometry">
            <mxPoint x="50" y="550" as="sourcePoint" />
            <mxPoint x="156" y="560" as="targetPoint" />
          </mxGeometry>
        </mxCell>
      </root>
    </mxGraphModel>
  </diagram>
</mxfile>
